<svg xmlns="http://www.w3.org/2000/svg" xmlns:xlink="http://www.w3.org/1999/xlink" contentStyleType="text/css" data-diagram-type="CLASS" height="1192px" preserveAspectRatio="none" style="width:2106px;height:1192px;background:#FFFFFF;" version="1.1" viewBox="0 0 2106 1192" width="2106px" zoomAndPan="magnify"><defs/><g><!--cluster Execution Flow--><g id="cluster_Execution Flow"><rect fill="none" height="1165.67" rx="2.5" ry="2.5" style="stroke:#000000;stroke-width:1.5;" width="489" x="1611.74" y="20.89"/><text fill="#000000" font-family="sans-serif" font-size="14" font-weight="bold" lengthAdjust="spacing" textLength="119.2188" x="1796.6306" y="35.8851">Execution Flow</text></g><!--class CreateImageRepository--><g id="elem_CreateImageRepository"><rect codeLine="69" fill="#F1F1F1" height="48" id="CreateImageRepository" rx="2.5" ry="2.5" style="stroke:#181818;stroke-width:0.5;" width="197.7441" x="1812.87" y="262.37"/><ellipse cx="1827.87" cy="278.37" fill="#ADD1B2" rx="11" ry="11" style="stroke:#181818;stroke-width:1;"/><path d="M1830.8388,284.0106 Q1830.2606,284.3075 1829.62,284.4481 Q1828.9794,284.6044 1828.2763,284.6044 Q1825.7763,284.6044 1824.4481,282.9637 Q1823.1356,281.3075 1823.1356,278.1825 Q1823.1356,275.0575 1824.4481,273.4012 Q1825.7763,271.745 1828.2763,271.745 Q1828.9794,271.745 1829.62,271.9012 Q1830.2763,272.0575 1830.8388,272.3544 L1830.8388,275.0731 Q1830.2138,274.495 1829.62,274.2294 Q1829.0263,273.9481 1828.4013,273.9481 Q1827.0575,273.9481 1826.37,275.0262 Q1825.6825,276.0887 1825.6825,278.1825 Q1825.6825,280.2762 1826.37,281.3544 Q1827.0575,282.4169 1828.4013,282.4169 Q1829.0263,282.4169 1829.62,282.1512 Q1830.2138,281.87 1830.8388,281.2919 L1830.8388,284.0106 Z " fill="#000000"/><text fill="#000000" font-family="sans-serif" font-size="14" lengthAdjust="spacing" textLength="165.7441" x="1841.87" y="283.2167">CreateImageRepository</text><line style="stroke:#181818;stroke-width:0.5;" x1="1813.87" x2="2009.6141" y1="294.37" y2="294.37"/><line style="stroke:#181818;stroke-width:0.5;" x1="1813.87" x2="2009.6141" y1="302.37" y2="302.37"/></g><!--class Step--><g id="elem_Step"><rect fill="#F1F1F1" height="48" id="Step" rx="2.5" ry="2.5" style="stroke:#181818;stroke-width:0.5;" width="63.876" x="1726.8" y="55.89"/><ellipse cx="1741.8" cy="71.89" fill="#ADD1B2" rx="11" ry="11" style="stroke:#181818;stroke-width:1;"/><path d="M1744.7688,77.5306 Q1744.1906,77.8275 1743.55,77.9681 Q1742.9094,78.1244 1742.2063,78.1244 Q1739.7063,78.1244 1738.3781,76.4837 Q1737.0656,74.8275 1737.0656,71.7025 Q1737.0656,68.5775 1738.3781,66.9212 Q1739.7063,65.265 1742.2063,65.265 Q1742.9094,65.265 1743.55,65.4212 Q1744.2063,65.5775 1744.7688,65.8744 L1744.7688,68.5931 Q1744.1438,68.015 1743.55,67.7494 Q1742.9563,67.4681 1742.3313,67.4681 Q1740.9875,67.4681 1740.3,68.5462 Q1739.6125,69.6087 1739.6125,71.7025 Q1739.6125,73.7962 1740.3,74.8744 Q1740.9875,75.9369 1742.3313,75.9369 Q1742.9563,75.9369 1743.55,75.6712 Q1744.1438,75.39 1744.7688,74.8119 L1744.7688,77.5306 Z " fill="#000000"/><text fill="#000000" font-family="sans-serif" font-size="14" lengthAdjust="spacing" textLength="31.876" x="1755.8" y="76.7367">Step</text><line style="stroke:#181818;stroke-width:0.5;" x1="1727.8" x2="1789.676" y1="87.89" y2="87.89"/><line style="stroke:#181818;stroke-width:0.5;" x1="1727.8" x2="1789.676" y1="95.89" y2="95.89"/></g><!--class CreateStages--><g id="elem_CreateStages"><rect codeLine="70" fill="#F1F1F1" height="48" id="CreateStages" rx="2.5" ry="2.5" style="stroke:#181818;stroke-width:0.5;" width="126.5752" x="1775.45" y="403.97"/><ellipse cx="1790.45" cy="419.97" fill="#ADD1B2" rx="11" ry="11" style="stroke:#181818;stroke-width:1;"/><path d="M1793.4188,425.6106 Q1792.8406,425.9075 1792.2,426.0481 Q1791.5594,426.2044 1790.8563,426.2044 Q1788.3563,426.2044 1787.0281,424.5637 Q1785.7156,422.9075 1785.7156,419.7825 Q1785.7156,416.6575 1787.0281,415.0012 Q1788.3563,413.345 1790.8563,413.345 Q1791.5594,413.345 1792.2,413.5012 Q1792.8563,413.6575 1793.4188,413.9544 L1793.4188,416.6731 Q1792.7938,416.095 1792.2,415.8294 Q1791.6063,415.5481 1790.9813,415.5481 Q1789.6375,415.5481 1788.95,416.6262 Q1788.2625,417.6887 1788.2625,419.7825 Q1788.2625,421.8762 1788.95,422.9544 Q1789.6375,424.0169 1790.9813,424.0169 Q1791.6063,424.0169 1792.2,423.7512 Q1792.7938,423.47 1793.4188,422.8919 L1793.4188,425.6106 Z " fill="#000000"/><text fill="#000000" font-family="sans-serif" font-size="14" lengthAdjust="spacing" textLength="94.5752" x="1804.45" y="424.8167">CreateStages</text><line style="stroke:#181818;stroke-width:0.5;" x1="1776.45" x2="1901.0252" y1="435.97" y2="435.97"/><line style="stroke:#181818;stroke-width:0.5;" x1="1776.45" x2="1901.0252" y1="443.97" y2="443.97"/></g><!--class CreateComputePool--><g id="elem_CreateComputePool"><rect codeLine="71" fill="#F1F1F1" height="48" id="CreateComputePool" rx="2.5" ry="2.5" style="stroke:#181818;stroke-width:0.5;" width="172.1299" x="1738.67" y="545.26"/><ellipse cx="1753.67" cy="561.26" fill="#ADD1B2" rx="11" ry="11" style="stroke:#181818;stroke-width:1;"/><path d="M1756.6388,566.9006 Q1756.0606,567.1975 1755.42,567.3381 Q1754.7794,567.4944 1754.0763,567.4944 Q1751.5763,567.4944 1750.2481,565.8538 Q1748.9356,564.1975 1748.9356,561.0725 Q1748.9356,557.9475 1750.2481,556.2913 Q1751.5763,554.635 1754.0763,554.635 Q1754.7794,554.635 1755.42,554.7913 Q1756.0763,554.9475 1756.6388,555.2444 L1756.6388,557.9631 Q1756.0138,557.385 1755.42,557.1194 Q1754.8263,556.8381 1754.2013,556.8381 Q1752.8575,556.8381 1752.17,557.9163 Q1751.4825,558.9788 1751.4825,561.0725 Q1751.4825,563.1663 1752.17,564.2444 Q1752.8575,565.3069 1754.2013,565.3069 Q1754.8263,565.3069 1755.42,565.0413 Q1756.0138,564.76 1756.6388,564.1819 L1756.6388,566.9006 Z " fill="#000000"/><text fill="#000000" font-family="sans-serif" font-size="14" lengthAdjust="spacing" textLength="140.1299" x="1767.67" y="566.1067">CreateComputePool</text><line style="stroke:#181818;stroke-width:0.5;" x1="1739.67" x2="1909.7999" y1="577.26" y2="577.26"/><line style="stroke:#181818;stroke-width:0.5;" x1="1739.67" x2="1909.7999" y1="585.26" y2="585.26"/></g><!--class BuildAndPushContainer--><g id="elem_BuildAndPushContainer"><rect codeLine="72" fill="#F1F1F1" height="48" id="BuildAndPushContainer" rx="2.5" ry="2.5" style="stroke:#181818;stroke-width:0.5;" width="196.377" x="1701.55" y="686.56"/><ellipse cx="1716.55" cy="702.56" fill="#ADD1B2" rx="11" ry="11" style="stroke:#181818;stroke-width:1;"/><path d="M1719.5188,708.2006 Q1718.9406,708.4975 1718.3,708.6381 Q1717.6594,708.7944 1716.9563,708.7944 Q1714.4563,708.7944 1713.1281,707.1538 Q1711.8156,705.4975 1711.8156,702.3725 Q1711.8156,699.2475 1713.1281,697.5913 Q1714.4563,695.935 1716.9563,695.935 Q1717.6594,695.935 1718.3,696.0913 Q1718.9563,696.2475 1719.5188,696.5444 L1719.5188,699.2631 Q1718.8938,698.685 1718.3,698.4194 Q1717.7063,698.1381 1717.0813,698.1381 Q1715.7375,698.1381 1715.05,699.2163 Q1714.3625,700.2788 1714.3625,702.3725 Q1714.3625,704.4663 1715.05,705.5444 Q1715.7375,706.6069 1717.0813,706.6069 Q1717.7063,706.6069 1718.3,706.3413 Q1718.8938,706.06 1719.5188,705.4819 L1719.5188,708.2006 Z " fill="#000000"/><text fill="#000000" font-family="sans-serif" font-size="14" lengthAdjust="spacing" textLength="164.377" x="1730.55" y="707.4067">BuildAndPushContainer</text><line style="stroke:#181818;stroke-width:0.5;" x1="1702.55" x2="1896.927" y1="718.56" y2="718.56"/><line style="stroke:#181818;stroke-width:0.5;" x1="1702.55" x2="1896.927" y1="726.56" y2="726.56"/></g><!--class UploadFiles--><g id="elem_UploadFiles"><rect codeLine="73" fill="#F1F1F1" height="48" id="UploadFiles" rx="2.5" ry="2.5" style="stroke:#181818;stroke-width:0.5;" width="112.7939" x="1684.34" y="795.56"/><ellipse cx="1699.34" cy="811.56" fill="#ADD1B2" rx="11" ry="11" style="stroke:#181818;stroke-width:1;"/><path d="M1702.3088,817.2006 Q1701.7306,817.4975 1701.09,817.6381 Q1700.4494,817.7944 1699.7463,817.7944 Q1697.2463,817.7944 1695.9181,816.1538 Q1694.6056,814.4975 1694.6056,811.3725 Q1694.6056,808.2475 1695.9181,806.5913 Q1697.2463,804.935 1699.7463,804.935 Q1700.4494,804.935 1701.09,805.0913 Q1701.7463,805.2475 1702.3088,805.5444 L1702.3088,808.2631 Q1701.6838,807.685 1701.09,807.4194 Q1700.4963,807.1381 1699.8713,807.1381 Q1698.5275,807.1381 1697.84,808.2163 Q1697.1525,809.2788 1697.1525,811.3725 Q1697.1525,813.4663 1697.84,814.5444 Q1698.5275,815.6069 1699.8713,815.6069 Q1700.4963,815.6069 1701.09,815.3413 Q1701.6838,815.06 1702.3088,814.4819 L1702.3088,817.2006 Z " fill="#000000"/><text fill="#000000" font-family="sans-serif" font-size="14" lengthAdjust="spacing" textLength="80.7939" x="1713.34" y="816.4067">UploadFiles</text><line style="stroke:#181818;stroke-width:0.5;" x1="1685.34" x2="1796.1339" y1="827.56" y2="827.56"/><line style="stroke:#181818;stroke-width:0.5;" x1="1685.34" x2="1796.1339" y1="835.56" y2="835.56"/></g><!--class CreateExternalAccess--><g id="elem_CreateExternalAccess"><rect codeLine="74" fill="#F1F1F1" height="48" id="CreateExternalAccess" rx="2.5" ry="2.5" style="stroke:#181818;stroke-width:0.5;" width="185.3301" x="1648.07" y="904.56"/><ellipse cx="1663.07" cy="920.56" fill="#ADD1B2" rx="11" ry="11" style="stroke:#181818;stroke-width:1;"/><path d="M1666.0388,926.2006 Q1665.4606,926.4975 1664.82,926.6381 Q1664.1794,926.7944 1663.4763,926.7944 Q1660.9763,926.7944 1659.6481,925.1538 Q1658.3356,923.4975 1658.3356,920.3725 Q1658.3356,917.2475 1659.6481,915.5913 Q1660.9763,913.935 1663.4763,913.935 Q1664.1794,913.935 1664.82,914.0913 Q1665.4763,914.2475 1666.0388,914.5444 L1666.0388,917.2631 Q1665.4138,916.685 1664.82,916.4194 Q1664.2263,916.1381 1663.6013,916.1381 Q1662.2575,916.1381 1661.57,917.2163 Q1660.8825,918.2788 1660.8825,920.3725 Q1660.8825,922.4663 1661.57,923.5444 Q1662.2575,924.6069 1663.6013,924.6069 Q1664.2263,924.6069 1664.82,924.3413 Q1665.4138,924.06 1666.0388,923.4819 L1666.0388,926.2006 Z " fill="#000000"/><text fill="#000000" font-family="sans-serif" font-size="14" lengthAdjust="spacing" textLength="153.3301" x="1677.07" y="925.4067">CreateExternalAccess</text><line style="stroke:#181818;stroke-width:0.5;" x1="1649.07" x2="1832.4001" y1="936.56" y2="936.56"/><line style="stroke:#181818;stroke-width:0.5;" x1="1649.07" x2="1832.4001" y1="944.56" y2="944.56"/></g><!--class CreateService--><g id="elem_CreateService"><rect codeLine="75" fill="#F1F1F1" height="48" id="CreateService" rx="2.5" ry="2.5" style="stroke:#181818;stroke-width:0.5;" width="130.5674" x="1917.45" y="1013.56"/><ellipse cx="1932.45" cy="1029.56" fill="#ADD1B2" rx="11" ry="11" style="stroke:#181818;stroke-width:1;"/><path d="M1935.4188,1035.2006 Q1934.8406,1035.4975 1934.2,1035.6381 Q1933.5594,1035.7944 1932.8563,1035.7944 Q1930.3563,1035.7944 1929.0281,1034.1538 Q1927.7156,1032.4975 1927.7156,1029.3725 Q1927.7156,1026.2475 1929.0281,1024.5913 Q1930.3563,1022.935 1932.8563,1022.935 Q1933.5594,1022.935 1934.2,1023.0913 Q1934.8563,1023.2475 1935.4188,1023.5444 L1935.4188,1026.2631 Q1934.7938,1025.685 1934.2,1025.4194 Q1933.6063,1025.1381 1932.9813,1025.1381 Q1931.6375,1025.1381 1930.95,1026.2163 Q1930.2625,1027.2788 1930.2625,1029.3725 Q1930.2625,1031.4663 1930.95,1032.5444 Q1931.6375,1033.6069 1932.9813,1033.6069 Q1933.6063,1033.6069 1934.2,1033.3413 Q1934.7938,1033.06 1935.4188,1032.4819 L1935.4188,1035.2006 Z " fill="#000000"/><text fill="#000000" font-family="sans-serif" font-size="14" lengthAdjust="spacing" textLength="98.5674" x="1946.45" y="1034.4067">CreateService</text><line style="stroke:#181818;stroke-width:0.5;" x1="1918.45" x2="2047.0174" y1="1045.56" y2="1045.56"/><line style="stroke:#181818;stroke-width:0.5;" x1="1918.45" x2="2047.0174" y1="1053.56" y2="1053.56"/></g><!--class CreateFunctions--><g id="elem_CreateFunctions"><rect codeLine="76" fill="#F1F1F1" height="48" id="CreateFunctions" rx="2.5" ry="2.5" style="stroke:#181818;stroke-width:0.5;" width="146.4336" x="1924.52" y="1122.56"/><ellipse cx="1939.52" cy="1138.56" fill="#ADD1B2" rx="11" ry="11" style="stroke:#181818;stroke-width:1;"/><path d="M1942.4888,1144.2006 Q1941.9106,1144.4975 1941.27,1144.6381 Q1940.6294,1144.7944 1939.9263,1144.7944 Q1937.4263,1144.7944 1936.0981,1143.1538 Q1934.7856,1141.4975 1934.7856,1138.3725 Q1934.7856,1135.2475 1936.0981,1133.5913 Q1937.4263,1131.935 1939.9263,1131.935 Q1940.6294,1131.935 1941.27,1132.0913 Q1941.9263,1132.2475 1942.4888,1132.5444 L1942.4888,1135.2631 Q1941.8638,1134.685 1941.27,1134.4194 Q1940.6763,1134.1381 1940.0513,1134.1381 Q1938.7075,1134.1381 1938.02,1135.2163 Q1937.3325,1136.2788 1937.3325,1138.3725 Q1937.3325,1140.4663 1938.02,1141.5444 Q1938.7075,1142.6069 1940.0513,1142.6069 Q1940.6763,1142.6069 1941.27,1142.3413 Q1941.8638,1142.06 1942.4888,1141.4819 L1942.4888,1144.2006 Z " fill="#000000"/><text fill="#000000" font-family="sans-serif" font-size="14" lengthAdjust="spacing" textLength="114.4336" x="1953.52" y="1143.4067">CreateFunctions</text><line style="stroke:#181818;stroke-width:0.5;" x1="1925.52" x2="2069.9536" y1="1154.56" y2="1154.56"/><line style="stroke:#181818;stroke-width:0.5;" x1="1925.52" x2="2069.9536" y1="1162.56" y2="1162.56"/></g><!--class Statement--><g id="elem_Statement"><rect codeLine="7" fill="#F1F1F1" height="113.1875" id="Statement" rx="2.5" ry="2.5" style="stroke:#181818;stroke-width:0.5;" width="234.0518" x="381.71" y="229.78"/><ellipse cx="457.6504" cy="245.78" fill="#A9DCDF" rx="11" ry="11" style="stroke:#181818;stroke-width:1;"/><path d="M457.7598,241.1237 L456.6036,246.2019 L458.9317,246.2019 L457.7598,241.1237 Z M456.2754,238.8894 L459.2598,238.8894 L462.6192,251.28 L460.1661,251.28 L459.4004,248.2175 L456.1192,248.2175 L455.3692,251.28 L452.9317,251.28 L456.2754,238.8894 Z " fill="#000000"/><text fill="#000000" font-family="sans-serif" font-size="14" font-style="italic" lengthAdjust="spacing" textLength="73.6709" x="478.1504" y="250.6267">Statement</text><line style="stroke:#181818;stroke-width:0.5;" x1="382.71" x2="614.7618" y1="261.78" y2="261.78"/><ellipse cx="392.71" cy="275.4284" fill="none" rx="3" ry="3" style="stroke:#038048;stroke-width:1;"/><text fill="#000000" font-family="sans-serif" font-size="14" lengthAdjust="spacing" textLength="128.4404" x="401.71" y="278.7751">requiresRole: Role</text><ellipse cx="392.71" cy="291.7253" fill="none" rx="3" ry="3" style="stroke:#038048;stroke-width:1;"/><text fill="#000000" font-family="sans-serif" font-size="14" lengthAdjust="spacing" textLength="208.0518" x="401.71" y="295.072">requiresResource: Resource[]</text><ellipse cx="392.71" cy="308.0222" fill="none" rx="3" ry="3" style="stroke:#038048;stroke-width:1;"/><text fill="#000000" font-family="sans-serif" font-size="14" lengthAdjust="spacing" textLength="137.2725" x="401.71" y="311.3689">creates: Resource[]</text><ellipse cx="392.71" cy="324.3191" fill="none" rx="3" ry="3" style="stroke:#038048;stroke-width:1;"/><text fill="#000000" font-family="sans-serif" font-size="14" lengthAdjust="spacing" textLength="144.9355" x="401.71" y="327.6657">modifies: Resource[]</text><line style="stroke:#181818;stroke-width:0.5;" x1="382.71" x2="614.7618" y1="334.9675" y2="334.9675"/></g><!--class SnowflakeSQL--><g id="elem_SnowflakeSQL"><rect codeLine="14" fill="#F1F1F1" height="48" id="SnowflakeSQL" rx="2.5" ry="2.5" style="stroke:#181818;stroke-width:0.5;" width="131.5996" x="509.94" y="403.97"/><ellipse cx="524.94" cy="419.97" fill="#ADD1B2" rx="11" ry="11" style="stroke:#181818;stroke-width:1;"/><path d="M527.9088,425.6106 Q527.3306,425.9075 526.69,426.0481 Q526.0494,426.2044 525.3463,426.2044 Q522.8463,426.2044 521.5181,424.5637 Q520.2056,422.9075 520.2056,419.7825 Q520.2056,416.6575 521.5181,415.0012 Q522.8463,413.345 525.3463,413.345 Q526.0494,413.345 526.69,413.5012 Q527.3463,413.6575 527.9088,413.9544 L527.9088,416.6731 Q527.2838,416.095 526.69,415.8294 Q526.0963,415.5481 525.4713,415.5481 Q524.1275,415.5481 523.44,416.6262 Q522.7525,417.6887 522.7525,419.7825 Q522.7525,421.8762 523.44,422.9544 Q524.1275,424.0169 525.4713,424.0169 Q526.0963,424.0169 526.69,423.7512 Q527.2838,423.47 527.9088,422.8919 L527.9088,425.6106 Z " fill="#000000"/><text fill="#000000" font-family="sans-serif" font-size="14" lengthAdjust="spacing" textLength="99.5996" x="538.94" y="424.8167">SnowflakeSQL</text><line style="stroke:#181818;stroke-width:0.5;" x1="510.94" x2="640.5396" y1="435.97" y2="435.97"/><line style="stroke:#181818;stroke-width:0.5;" x1="510.94" x2="640.5396" y1="443.97" y2="443.97"/></g><!--class DockerCommand--><g id="elem_DockerCommand"><rect codeLine="15" fill="#F1F1F1" height="48" id="DockerCommand" rx="2.5" ry="2.5" style="stroke:#181818;stroke-width:0.5;" width="153.4746" x="7" y="403.97"/><ellipse cx="22" cy="419.97" fill="#ADD1B2" rx="11" ry="11" style="stroke:#181818;stroke-width:1;"/><path d="M24.9688,425.6106 Q24.3906,425.9075 23.75,426.0481 Q23.1094,426.2044 22.4063,426.2044 Q19.9063,426.2044 18.5781,424.5637 Q17.2656,422.9075 17.2656,419.7825 Q17.2656,416.6575 18.5781,415.0012 Q19.9063,413.345 22.4063,413.345 Q23.1094,413.345 23.75,413.5012 Q24.4063,413.6575 24.9688,413.9544 L24.9688,416.6731 Q24.3438,416.095 23.75,415.8294 Q23.1563,415.5481 22.5313,415.5481 Q21.1875,415.5481 20.5,416.6262 Q19.8125,417.6887 19.8125,419.7825 Q19.8125,421.8762 20.5,422.9544 Q21.1875,424.0169 22.5313,424.0169 Q23.1563,424.0169 23.75,423.7512 Q24.3438,423.47 24.9688,422.8919 L24.9688,425.6106 Z " fill="#000000"/><text fill="#000000" font-family="sans-serif" font-size="14" lengthAdjust="spacing" textLength="121.4746" x="36" y="424.8167">DockerCommand</text><line style="stroke:#181818;stroke-width:0.5;" x1="8" x2="159.4746" y1="435.97" y2="435.97"/><line style="stroke:#181818;stroke-width:0.5;" x1="8" x2="159.4746" y1="443.97" y2="443.97"/></g><!--class BashCommand--><g id="elem_BashCommand"><rect codeLine="16" fill="#F1F1F1" height="48" id="BashCommand" rx="2.5" ry="2.5" style="stroke:#181818;stroke-width:0.5;" width="138.3057" x="195.58" y="403.97"/><ellipse cx="210.58" cy="419.97" fill="#ADD1B2" rx="11" ry="11" style="stroke:#181818;stroke-width:1;"/><path d="M213.5488,425.6106 Q212.9706,425.9075 212.33,426.0481 Q211.6894,426.2044 210.9863,426.2044 Q208.4863,426.2044 207.1581,424.5637 Q205.8456,422.9075 205.8456,419.7825 Q205.8456,416.6575 207.1581,415.0012 Q208.4863,413.345 210.9863,413.345 Q211.6894,413.345 212.33,413.5012 Q212.9863,413.6575 213.5488,413.9544 L213.5488,416.6731 Q212.9238,416.095 212.33,415.8294 Q211.7363,415.5481 211.1113,415.5481 Q209.7675,415.5481 209.08,416.6262 Q208.3925,417.6887 208.3925,419.7825 Q208.3925,421.8762 209.08,422.9544 Q209.7675,424.0169 211.1113,424.0169 Q211.7363,424.0169 212.33,423.7512 Q212.9238,423.47 213.5488,422.8919 L213.5488,425.6106 Z " fill="#000000"/><text fill="#000000" font-family="sans-serif" font-size="14" lengthAdjust="spacing" textLength="106.3057" x="224.58" y="424.8167">BashCommand</text><line style="stroke:#181818;stroke-width:0.5;" x1="196.58" x2="332.8857" y1="435.97" y2="435.97"/><line style="stroke:#181818;stroke-width:0.5;" x1="196.58" x2="332.8857" y1="443.97" y2="443.97"/></g><!--class FileUpload--><g id="elem_FileUpload"><rect codeLine="17" fill="#F1F1F1" height="48" id="FileUpload" rx="2.5" ry="2.5" style="stroke:#181818;stroke-width:0.5;" width="105.5" x="368.99" y="403.97"/><ellipse cx="383.99" cy="419.97" fill="#ADD1B2" rx="11" ry="11" style="stroke:#181818;stroke-width:1;"/><path d="M386.9588,425.6106 Q386.3806,425.9075 385.74,426.0481 Q385.0994,426.2044 384.3963,426.2044 Q381.8963,426.2044 380.5681,424.5637 Q379.2556,422.9075 379.2556,419.7825 Q379.2556,416.6575 380.5681,415.0012 Q381.8963,413.345 384.3963,413.345 Q385.0994,413.345 385.74,413.5012 Q386.3963,413.6575 386.9588,413.9544 L386.9588,416.6731 Q386.3338,416.095 385.74,415.8294 Q385.1463,415.5481 384.5213,415.5481 Q383.1775,415.5481 382.49,416.6262 Q381.8025,417.6887 381.8025,419.7825 Q381.8025,421.8762 382.49,422.9544 Q383.1775,424.0169 384.5213,424.0169 Q385.1463,424.0169 385.74,423.7512 Q386.3338,423.47 386.9588,422.8919 L386.9588,425.6106 Z " fill="#000000"/><text fill="#000000" font-family="sans-serif" font-size="14" lengthAdjust="spacing" textLength="73.5" x="397.99" y="424.8167">FileUpload</text><line style="stroke:#181818;stroke-width:0.5;" x1="369.99" x2="473.49" y1="435.97" y2="435.97"/><line style="stroke:#181818;stroke-width:0.5;" x1="369.99" x2="473.49" y1="443.97" y2="443.97"/></g><!--class Role--><g id="elem_Role"><rect codeLine="19" fill="#F1F1F1" height="80.5938" id="Role" rx="2.5" ry="2.5" style="stroke:#181818;stroke-width:0.5;" width="232.5889" x="589.44" y="528.97"/><ellipse cx="686.0865" cy="544.97" fill="#ADD1B2" rx="11" ry="11" style="stroke:#181818;stroke-width:1;"/><path d="M689.0552,550.6106 Q688.4771,550.9075 687.8365,551.0481 Q687.1959,551.2044 686.4927,551.2044 Q683.9927,551.2044 682.6646,549.5637 Q681.3521,547.9075 681.3521,544.7825 Q681.3521,541.6575 682.6646,540.0012 Q683.9927,538.345 686.4927,538.345 Q687.1959,538.345 687.8365,538.5012 Q688.4927,538.6575 689.0552,538.9544 L689.0552,541.6731 Q688.4302,541.095 687.8365,540.8294 Q687.2427,540.5481 686.6177,540.5481 Q685.274,540.5481 684.5865,541.6262 Q683.899,542.6887 683.899,544.7825 Q683.899,546.8762 684.5865,547.9544 Q685.274,549.0169 686.6177,549.0169 Q687.2427,549.0169 687.8365,548.7512 Q688.4302,548.47 689.0552,547.8919 L689.0552,550.6106 Z " fill="#000000"/><text fill="#000000" font-family="sans-serif" font-size="14" lengthAdjust="spacing" textLength="30.7959" x="706.5865" y="549.8167">Role</text><line style="stroke:#181818;stroke-width:0.5;" x1="590.44" x2="821.0289" y1="560.97" y2="560.97"/><ellipse cx="600.44" cy="574.6184" fill="none" rx="3" ry="3" style="stroke:#038048;stroke-width:1;"/><text fill="#000000" font-family="sans-serif" font-size="14" lengthAdjust="spacing" textLength="90.6514" x="609.44" y="577.9651">name: String</text><ellipse cx="600.44" cy="590.9153" fill="none" rx="3" ry="3" style="stroke:#038048;stroke-width:1;"/><text fill="#000000" font-family="sans-serif" font-size="14" lengthAdjust="spacing" textLength="206.5889" x="609.44" y="594.262">isNonAccountAdmin: Boolean</text><line style="stroke:#181818;stroke-width:0.5;" x1="590.44" x2="821.0289" y1="601.5637" y2="601.5637"/></g><!--class Resource--><g id="elem_Resource"><rect codeLine="24" fill="#F1F1F1" height="96.8906" id="Resource" rx="2.5" ry="2.5" style="stroke:#181818;stroke-width:0.5;" width="165.918" x="1066.78" y="237.93"/><ellipse cx="1112.9192" cy="253.93" fill="#ADD1B2" rx="11" ry="11" style="stroke:#181818;stroke-width:1;"/><path d="M1115.8879,259.5706 Q1115.3098,259.8675 1114.6692,260.0081 Q1114.0285,260.1644 1113.3254,260.1644 Q1110.8254,260.1644 1109.4973,258.5237 Q1108.1848,256.8675 1108.1848,253.7425 Q1108.1848,250.6175 1109.4973,248.9612 Q1110.8254,247.305 1113.3254,247.305 Q1114.0285,247.305 1114.6692,247.4612 Q1115.3254,247.6175 1115.8879,247.9144 L1115.8879,250.6331 Q1115.2629,250.055 1114.6692,249.7894 Q1114.0754,249.5081 1113.4504,249.5081 Q1112.1067,249.5081 1111.4192,250.5862 Q1110.7317,251.6487 1110.7317,253.7425 Q1110.7317,255.8362 1111.4192,256.9144 Q1112.1067,257.9769 1113.4504,257.9769 Q1114.0754,257.9769 1114.6692,257.7112 Q1115.2629,257.43 1115.8879,256.8519 L1115.8879,259.5706 Z " fill="#000000"/><text fill="#000000" font-family="sans-serif" font-size="14" lengthAdjust="spacing" textLength="65.1396" x="1133.4192" y="258.7767">Resource</text><line style="stroke:#181818;stroke-width:0.5;" x1="1067.78" x2="1231.698" y1="269.93" y2="269.93"/><ellipse cx="1077.78" cy="283.5784" fill="none" rx="3" ry="3" style="stroke:#038048;stroke-width:1;"/><text fill="#000000" font-family="sans-serif" font-size="14" lengthAdjust="spacing" textLength="90.6514" x="1086.78" y="286.9251">name: String</text><ellipse cx="1077.78" cy="299.8753" fill="none" rx="3" ry="3" style="stroke:#038048;stroke-width:1;"/><text fill="#000000" font-family="sans-serif" font-size="14" lengthAdjust="spacing" textLength="139.918" x="1086.78" y="303.222">type: ResourceType</text><ellipse cx="1077.78" cy="316.1722" fill="none" rx="3" ry="3" style="stroke:#038048;stroke-width:1;"/><text fill="#000000" font-family="sans-serif" font-size="14" lengthAdjust="spacing" textLength="83.2207" x="1086.78" y="319.5189">owner: Role</text><line style="stroke:#181818;stroke-width:0.5;" x1="1067.78" x2="1231.698" y1="326.8206" y2="326.8206"/></g><!--class Application--><g id="elem_Application"><rect codeLine="30" fill="#F1F1F1" height="96.8906" id="Application" rx="2.5" ry="2.5" style="stroke:#181818;stroke-width:0.5;" width="128.2246" x="1085.63" y="31.44"/><ellipse cx="1108.7304" cy="47.44" fill="#ADD1B2" rx="11" ry="11" style="stroke:#181818;stroke-width:1;"/><path d="M1111.6992,53.0806 Q1111.1211,53.3775 1110.4804,53.5181 Q1109.8398,53.6744 1109.1367,53.6744 Q1106.6367,53.6744 1105.3086,52.0338 Q1103.9961,50.3775 1103.9961,47.2525 Q1103.9961,44.1275 1105.3086,42.4713 Q1106.6367,40.815 1109.1367,40.815 Q1109.8398,40.815 1110.4804,40.9713 Q1111.1367,41.1275 1111.6992,41.4244 L1111.6992,44.1431 Q1111.0742,43.565 1110.4804,43.2994 Q1109.8867,43.0181 1109.2617,43.0181 Q1107.9179,43.0181 1107.2304,44.0963 Q1106.5429,45.1588 1106.5429,47.2525 Q1106.5429,49.3463 1107.2304,50.4244 Q1107.9179,51.4869 1109.2617,51.4869 Q1109.8867,51.4869 1110.4804,51.2213 Q1111.0742,50.94 1111.6992,50.3619 L1111.6992,53.0806 Z " fill="#000000"/><text fill="#000000" font-family="sans-serif" font-size="14" lengthAdjust="spacing" textLength="78.2236" x="1124.5305" y="52.2867">Application</text><line style="stroke:#181818;stroke-width:0.5;" x1="1086.63" x2="1212.8546" y1="63.44" y2="63.44"/><ellipse cx="1096.63" cy="77.0884" fill="none" rx="3" ry="3" style="stroke:#038048;stroke-width:1;"/><text fill="#000000" font-family="sans-serif" font-size="14" lengthAdjust="spacing" textLength="90.6514" x="1105.63" y="80.4351">name: String</text><ellipse cx="1096.63" cy="93.3853" fill="none" rx="3" ry="3" style="stroke:#038048;stroke-width:1;"/><text fill="#000000" font-family="sans-serif" font-size="14" lengthAdjust="spacing" textLength="93.9668" x="1105.63" y="96.732">status: String</text><ellipse cx="1096.63" cy="109.6822" fill="none" rx="3" ry="3" style="stroke:#038048;stroke-width:1;"/><text fill="#000000" font-family="sans-serif" font-size="14" lengthAdjust="spacing" textLength="102.2246" x="1105.63" y="113.0289">version: String</text><line style="stroke:#181818;stroke-width:0.5;" x1="1086.63" x2="1212.8546" y1="120.3306" y2="120.3306"/></g><!--class ResourceType--><g id="elem_ResourceType"><rect codeLine="36" fill="#F1F1F1" height="145.7813" id="ResourceType" rx="2.5" ry="2.5" style="stroke:#181818;stroke-width:0.5;" width="153.3809" x="1442.05" y="7"/><ellipse cx="1466.9069" cy="23" fill="#EB937F" rx="11" ry="11" style="stroke:#181818;stroke-width:1;"/><path d="M1471.0163,29 L1463.2976,29 L1463.2976,16.6094 L1471.0163,16.6094 L1471.0163,18.7656 L1465.7507,18.7656 L1465.7507,21.4375 L1470.5163,21.4375 L1470.5163,23.5938 L1465.7507,23.5938 L1465.7507,26.8438 L1471.0163,26.8438 L1471.0163,29 Z " fill="#000000"/><text fill="#000000" font-family="sans-serif" font-size="14" lengthAdjust="spacing" textLength="99.4766" x="1483.0974" y="27.8467">ResourceType</text><line style="stroke:#181818;stroke-width:0.5;" x1="1443.05" x2="1594.4309" y1="39" y2="39"/><text fill="#000000" font-family="sans-serif" font-size="14" lengthAdjust="spacing" textLength="141.3809" x="1448.05" y="55.9951">IMAGE_REPOSITORY</text><text fill="#000000" font-family="sans-serif" font-size="14" lengthAdjust="spacing" textLength="46.71" x="1448.05" y="72.292">STAGE</text><text fill="#000000" font-family="sans-serif" font-size="14" lengthAdjust="spacing" textLength="114.2422" x="1448.05" y="88.5889">COMPUTE_POOL</text><text fill="#000000" font-family="sans-serif" font-size="14" lengthAdjust="spacing" textLength="59.7871" x="1448.05" y="104.8857">SERVICE</text><text fill="#000000" font-family="sans-serif" font-size="14" lengthAdjust="spacing" textLength="72.7207" x="1448.05" y="121.1826">FUNCTION</text><text fill="#000000" font-family="sans-serif" font-size="14" lengthAdjust="spacing" textLength="115.2607" x="1448.05" y="137.4795">NETWORK_RULE</text><line style="stroke:#181818;stroke-width:0.5;" x1="1443.05" x2="1594.4309" y1="144.7813" y2="144.7813"/></g><!--class Step--><g id="elem_Step"><rect codeLine="46" fill="#F1F1F1" height="113.1875" id="Step" rx="2.5" ry="2.5" style="stroke:#181818;stroke-width:0.5;" width="175.8027" x="867.84" y="23.29"/><ellipse cx="935.5534" cy="39.29" fill="#ADD1B2" rx="11" ry="11" style="stroke:#181818;stroke-width:1;"/><path d="M938.5221,44.9306 Q937.944,45.2275 937.3034,45.3681 Q936.6628,45.5244 935.9596,45.5244 Q933.4596,45.5244 932.1315,43.8837 Q930.819,42.2275 930.819,39.1025 Q930.819,35.9775 932.1315,34.3212 Q933.4596,32.665 935.9596,32.665 Q936.6628,32.665 937.3034,32.8212 Q937.9596,32.9775 938.5221,33.2744 L938.5221,35.9931 Q937.8971,35.415 937.3034,35.1494 Q936.7096,34.8681 936.0846,34.8681 Q934.7409,34.8681 934.0534,35.9462 Q933.3659,37.0087 933.3659,39.1025 Q933.3659,41.1962 934.0534,42.2744 Q934.7409,43.3369 936.0846,43.3369 Q936.7096,43.3369 937.3034,43.0712 Q937.8971,42.79 938.5221,42.2119 L938.5221,44.9306 Z " fill="#000000"/><text fill="#000000" font-family="sans-serif" font-size="14" lengthAdjust="spacing" textLength="31.876" x="956.0534" y="44.1367">Step</text><line style="stroke:#181818;stroke-width:0.5;" x1="868.84" x2="1042.6427" y1="55.29" y2="55.29"/><ellipse cx="878.84" cy="68.9384" fill="none" rx="3" ry="3" style="stroke:#038048;stroke-width:1;"/><text fill="#000000" font-family="sans-serif" font-size="14" lengthAdjust="spacing" textLength="97.1045" x="887.84" y="72.2851">order: Integer</text><ellipse cx="878.84" cy="85.2353" fill="none" rx="3" ry="3" style="stroke:#038048;stroke-width:1;"/><text fill="#000000" font-family="sans-serif" font-size="14" lengthAdjust="spacing" textLength="90.6514" x="887.84" y="88.582">name: String</text><ellipse cx="878.84" cy="101.5322" fill="none" rx="3" ry="3" style="stroke:#038048;stroke-width:1;"/><text fill="#000000" font-family="sans-serif" font-size="14" lengthAdjust="spacing" textLength="109.6484" x="887.84" y="104.8789">requires: Step[]</text><ellipse cx="878.84" cy="117.8291" fill="none" rx="3" ry="3" style="stroke:#038048;stroke-width:1;"/><text fill="#000000" font-family="sans-serif" font-size="14" lengthAdjust="spacing" textLength="149.8027" x="887.84" y="121.1757">produces: Resource[]</text><line style="stroke:#181818;stroke-width:0.5;" x1="868.84" x2="1042.6427" y1="128.4775" y2="128.4775"/></g><!--class ImageRepository--><g id="elem_ImageRepository"><rect codeLine="54" fill="#F1F1F1" height="48" id="ImageRepository" rx="2.5" ry="2.5" style="stroke:#181818;stroke-width:0.5;" width="150.918" x="1019.28" y="686.56"/><ellipse cx="1034.28" cy="702.56" fill="#ADD1B2" rx="11" ry="11" style="stroke:#181818;stroke-width:1;"/><path d="M1037.2488,708.2006 Q1036.6706,708.4975 1036.03,708.6381 Q1035.3894,708.7944 1034.6863,708.7944 Q1032.1863,708.7944 1030.8581,707.1538 Q1029.5456,705.4975 1029.5456,702.3725 Q1029.5456,699.2475 1030.8581,697.5913 Q1032.1863,695.935 1034.6863,695.935 Q1035.3894,695.935 1036.03,696.0913 Q1036.6863,696.2475 1037.2488,696.5444 L1037.2488,699.2631 Q1036.6238,698.685 1036.03,698.4194 Q1035.4363,698.1381 1034.8113,698.1381 Q1033.4675,698.1381 1032.78,699.2163 Q1032.0925,700.2788 1032.0925,702.3725 Q1032.0925,704.4663 1032.78,705.5444 Q1033.4675,706.6069 1034.8113,706.6069 Q1035.4363,706.6069 1036.03,706.3413 Q1036.6238,706.06 1037.2488,705.4819 L1037.2488,708.2006 Z " fill="#000000"/><text fill="#000000" font-family="sans-serif" font-size="14" lengthAdjust="spacing" textLength="118.918" x="1048.28" y="707.4067">ImageRepository</text><line style="stroke:#181818;stroke-width:0.5;" x1="1020.28" x2="1169.198" y1="718.56" y2="718.56"/><line style="stroke:#181818;stroke-width:0.5;" x1="1020.28" x2="1169.198" y1="726.56" y2="726.56"/></g><!--class Stage--><g id="elem_Stage"><rect codeLine="55" fill="#F1F1F1" height="48" id="Stage" rx="2.5" ry="2.5" style="stroke:#181818;stroke-width:0.5;" width="72.4551" x="807.51" y="403.97"/><ellipse cx="822.51" cy="419.97" fill="#ADD1B2" rx="11" ry="11" style="stroke:#181818;stroke-width:1;"/><path d="M825.4788,425.6106 Q824.9006,425.9075 824.26,426.0481 Q823.6194,426.2044 822.9163,426.2044 Q820.4163,426.2044 819.0881,424.5637 Q817.7756,422.9075 817.7756,419.7825 Q817.7756,416.6575 819.0881,415.0012 Q820.4163,413.345 822.9163,413.345 Q823.6194,413.345 824.26,413.5012 Q824.9163,413.6575 825.4788,413.9544 L825.4788,416.6731 Q824.8538,416.095 824.26,415.8294 Q823.6663,415.5481 823.0413,415.5481 Q821.6975,415.5481 821.01,416.6262 Q820.3225,417.6887 820.3225,419.7825 Q820.3225,421.8762 821.01,422.9544 Q821.6975,424.0169 823.0413,424.0169 Q823.6663,424.0169 824.26,423.7512 Q824.8538,423.47 825.4788,422.8919 L825.4788,425.6106 Z " fill="#000000"/><text fill="#000000" font-family="sans-serif" font-size="14" lengthAdjust="spacing" textLength="40.4551" x="836.51" y="424.8167">Stage</text><line style="stroke:#181818;stroke-width:0.5;" x1="808.51" x2="878.9651" y1="435.97" y2="435.97"/><line style="stroke:#181818;stroke-width:0.5;" x1="808.51" x2="878.9651" y1="443.97" y2="443.97"/></g><!--class ComputePool--><g id="elem_ComputePool"><rect codeLine="56" fill="#F1F1F1" height="48" id="ComputePool" rx="2.5" ry="2.5" style="stroke:#181818;stroke-width:0.5;" width="125.3037" x="1214.09" y="686.56"/><ellipse cx="1229.09" cy="702.56" fill="#ADD1B2" rx="11" ry="11" style="stroke:#181818;stroke-width:1;"/><path d="M1232.0588,708.2006 Q1231.4806,708.4975 1230.84,708.6381 Q1230.1994,708.7944 1229.4963,708.7944 Q1226.9963,708.7944 1225.6681,707.1538 Q1224.3556,705.4975 1224.3556,702.3725 Q1224.3556,699.2475 1225.6681,697.5913 Q1226.9963,695.935 1229.4963,695.935 Q1230.1994,695.935 1230.84,696.0913 Q1231.4963,696.2475 1232.0588,696.5444 L1232.0588,699.2631 Q1231.4338,698.685 1230.84,698.4194 Q1230.2463,698.1381 1229.6213,698.1381 Q1228.2775,698.1381 1227.59,699.2163 Q1226.9025,700.2788 1226.9025,702.3725 Q1226.9025,704.4663 1227.59,705.5444 Q1228.2775,706.6069 1229.6213,706.6069 Q1230.2463,706.6069 1230.84,706.3413 Q1231.4338,706.06 1232.0588,705.4819 L1232.0588,708.2006 Z " fill="#000000"/><text fill="#000000" font-family="sans-serif" font-size="14" lengthAdjust="spacing" textLength="93.3037" x="1243.09" y="707.4067">ComputePool</text><line style="stroke:#181818;stroke-width:0.5;" x1="1215.09" x2="1338.3937" y1="718.56" y2="718.56"/><line style="stroke:#181818;stroke-width:0.5;" x1="1215.09" x2="1338.3937" y1="726.56" y2="726.56"/></g><!--class Service--><g id="elem_Service"><rect codeLine="57" fill="#F1F1F1" height="48" id="Service" rx="2.5" ry="2.5" style="stroke:#181818;stroke-width:0.5;" width="83.7412" x="1281.87" y="545.26"/><ellipse cx="1296.87" cy="561.26" fill="#ADD1B2" rx="11" ry="11" style="stroke:#181818;stroke-width:1;"/><path d="M1299.8388,566.9006 Q1299.2606,567.1975 1298.62,567.3381 Q1297.9794,567.4944 1297.2763,567.4944 Q1294.7763,567.4944 1293.4481,565.8538 Q1292.1356,564.1975 1292.1356,561.0725 Q1292.1356,557.9475 1293.4481,556.2913 Q1294.7763,554.635 1297.2763,554.635 Q1297.9794,554.635 1298.62,554.7913 Q1299.2763,554.9475 1299.8388,555.2444 L1299.8388,557.9631 Q1299.2138,557.385 1298.62,557.1194 Q1298.0263,556.8381 1297.4013,556.8381 Q1296.0575,556.8381 1295.37,557.9163 Q1294.6825,558.9788 1294.6825,561.0725 Q1294.6825,563.1663 1295.37,564.2444 Q1296.0575,565.3069 1297.4013,565.3069 Q1298.0263,565.3069 1298.62,565.0413 Q1299.2138,564.76 1299.8388,564.1819 L1299.8388,566.9006 Z " fill="#000000"/><text fill="#000000" font-family="sans-serif" font-size="14" lengthAdjust="spacing" textLength="51.7412" x="1310.87" y="566.1067">Service</text><line style="stroke:#181818;stroke-width:0.5;" x1="1282.87" x2="1364.6112" y1="577.26" y2="577.26"/><line style="stroke:#181818;stroke-width:0.5;" x1="1282.87" x2="1364.6112" y1="585.26" y2="585.26"/></g><!--class Function--><g id="elem_Function"><rect codeLine="58" fill="#F1F1F1" height="48" id="Function" rx="2.5" ry="2.5" style="stroke:#181818;stroke-width:0.5;" width="92.3135" x="1322.58" y="403.97"/><ellipse cx="1337.58" cy="419.97" fill="#ADD1B2" rx="11" ry="11" style="stroke:#181818;stroke-width:1;"/><path d="M1340.5488,425.6106 Q1339.9706,425.9075 1339.33,426.0481 Q1338.6894,426.2044 1337.9863,426.2044 Q1335.4863,426.2044 1334.1581,424.5637 Q1332.8456,422.9075 1332.8456,419.7825 Q1332.8456,416.6575 1334.1581,415.0012 Q1335.4863,413.345 1337.9863,413.345 Q1338.6894,413.345 1339.33,413.5012 Q1339.9863,413.6575 1340.5488,413.9544 L1340.5488,416.6731 Q1339.9238,416.095 1339.33,415.8294 Q1338.7363,415.5481 1338.1113,415.5481 Q1336.7675,415.5481 1336.08,416.6262 Q1335.3925,417.6887 1335.3925,419.7825 Q1335.3925,421.8762 1336.08,422.9544 Q1336.7675,424.0169 1338.1113,424.0169 Q1338.7363,424.0169 1339.33,423.7512 Q1339.9238,423.47 1340.5488,422.8919 L1340.5488,425.6106 Z " fill="#000000"/><text fill="#000000" font-family="sans-serif" font-size="14" lengthAdjust="spacing" textLength="60.3135" x="1351.58" y="424.8167">Function</text><line style="stroke:#181818;stroke-width:0.5;" x1="1323.58" x2="1413.8935" y1="435.97" y2="435.97"/><line style="stroke:#181818;stroke-width:0.5;" x1="1323.58" x2="1413.8935" y1="443.97" y2="443.97"/></g><!--class NetworkRule--><g id="elem_NetworkRule"><rect codeLine="59" fill="#F1F1F1" height="48" id="NetworkRule" rx="2.5" ry="2.5" style="stroke:#181818;stroke-width:0.5;" width="121.5576" x="1395.96" y="686.56"/><ellipse cx="1410.96" cy="702.56" fill="#ADD1B2" rx="11" ry="11" style="stroke:#181818;stroke-width:1;"/><path d="M1413.9288,708.2006 Q1413.3506,708.4975 1412.71,708.6381 Q1412.0694,708.7944 1411.3663,708.7944 Q1408.8663,708.7944 1407.5381,707.1538 Q1406.2256,705.4975 1406.2256,702.3725 Q1406.2256,699.2475 1407.5381,697.5913 Q1408.8663,695.935 1411.3663,695.935 Q1412.0694,695.935 1412.71,696.0913 Q1413.3663,696.2475 1413.9288,696.5444 L1413.9288,699.2631 Q1413.3038,698.685 1412.71,698.4194 Q1412.1163,698.1381 1411.4913,698.1381 Q1410.1475,698.1381 1409.46,699.2163 Q1408.7725,700.2788 1408.7725,702.3725 Q1408.7725,704.4663 1409.46,705.5444 Q1410.1475,706.6069 1411.4913,706.6069 Q1412.1163,706.6069 1412.71,706.3413 Q1413.3038,706.06 1413.9288,705.4819 L1413.9288,708.2006 Z " fill="#000000"/><text fill="#000000" font-family="sans-serif" font-size="14" lengthAdjust="spacing" textLength="89.5576" x="1424.96" y="707.4067">NetworkRule</text><line style="stroke:#181818;stroke-width:0.5;" x1="1396.96" x2="1516.5176" y1="718.56" y2="718.56"/><line style="stroke:#181818;stroke-width:0.5;" x1="1396.96" x2="1516.5176" y1="726.56" y2="726.56"/></g><g id="elem_GMN63"><path d="M857.39,549.13 L857.39,565.26 L822.48,569.26 L857.39,573.26 L857.39,589.3956 A0,0 0 0 0 857.39,589.3956 L1048.0819,589.3956 A0,0 0 0 0 1048.0819,589.3956 L1048.0819,559.13 L1038.0819,549.13 L857.39,549.13 A0,0 0 0 0 857.39,549.13 " fill="#FEFFDD" style="stroke:#181818;stroke-width:0.5;"/><path d="M1038.0819,549.13 L1038.0819,559.13 L1048.0819,559.13 L1038.0819,549.13 " fill="#FEFFDD" style="stroke:#181818;stroke-width:0.5;"/><text fill="#000000" font-family="sans-serif" font-size="13" lengthAdjust="spacing" textLength="167.7876" x="863.39" y="566.1969">Non-ACCOUNTADMIN role</text><text fill="#000000" font-family="sans-serif" font-size="13" lengthAdjust="spacing" textLength="169.6919" x="863.39" y="581.3297">required for all operations</text></g><g id="elem_GMN66"><path d="M1248.39,59.76 L1248.39,75.89 L1214.05,79.89 L1248.39,83.89 L1248.39,100.0256 A0,0 0 0 0 1248.39,100.0256 L1407.0897,100.0256 A0,0 0 0 0 1407.0897,100.0256 L1407.0897,69.76 L1397.0897,59.76 L1248.39,59.76 A0,0 0 0 0 1248.39,59.76 " fill="#FEFFDD" style="stroke:#181818;stroke-width:0.5;"/><path d="M1397.0897,59.76 L1397.0897,69.76 L1407.0897,69.76 L1397.0897,59.76 " fill="#FEFFDD" style="stroke:#181818;stroke-width:0.5;"/><text fill="#000000" font-family="sans-serif" font-size="13" lengthAdjust="spacing" textLength="129.8413" x="1254.39" y="76.8269">Whisper Application</text><text fill="#000000" font-family="sans-serif" font-size="13" lengthAdjust="spacing" textLength="137.6997" x="1254.39" y="91.9597">Transcription Service</text></g><!--reverse link Statement to SnowflakeSQL--><g id="link_Statement_SnowflakeSQL"><path d="M538.3052,359.1105 C549.9352,380.1905 553.84,387.27 562.93,403.75 " fill="none" id="Statement-backto-SnowflakeSQL" style="stroke:#181818;stroke-width:1;"/><polygon fill="none" points="529.61,343.35,533.0517,362.0089,543.5587,356.2121,529.61,343.35" style="stroke:#181818;stroke-width:1;"/></g><!--reverse link Statement to DockerCommand--><g id="link_Statement_DockerCommand"><path d="M364.4198,332.5501 C290.8298,357.3101 215.51,382.64 153.32,403.56 " fill="none" id="Statement-backto-DockerCommand" style="stroke:#181818;stroke-width:1;"/><polygon fill="none" points="381.48,326.81,362.5064,326.8633,366.3331,338.2368,381.48,326.81" style="stroke:#181818;stroke-width:1;"/></g><!--reverse link Statement to BashCommand--><g id="link_Statement_BashCommand"><path d="M389.4516,352.5715 C354.2316,373.5815 331.55,387.11 303.96,403.57 " fill="none" id="Statement-backto-BashCommand" style="stroke:#181818;stroke-width:1;"/><polygon fill="none" points="404.91,343.35,386.3777,347.4187,392.5254,357.7243,404.91,343.35" style="stroke:#181818;stroke-width:1;"/></g><!--reverse link Statement to FileUpload--><g id="link_Statement_FileUpload"><path d="M459.1648,359.1105 C447.5348,380.1905 443.63,387.27 434.55,403.75 " fill="none" id="Statement-backto-FileUpload" style="stroke:#181818;stroke-width:1;"/><polygon fill="none" points="467.86,343.35,453.9113,356.2121,464.4183,362.0089,467.86,343.35" style="stroke:#181818;stroke-width:1;"/></g><!--reverse link Resource to ImageRepository--><g id="link_Resource_ImageRepository"><path d="M1141.2145,352.8291 C1129.4145,443.3991 1106.46,619.59 1097.75,686.4 " fill="none" id="Resource-backto-ImageRepository" style="stroke:#181818;stroke-width:1;"/><polygon fill="none" points="1143.54,334.98,1135.2648,352.054,1147.1642,353.6043,1143.54,334.98" style="stroke:#181818;stroke-width:1;"/></g><!--reverse link Resource to Stage--><g id="link_Resource_Stage"><path d="M1049.6515,323.3913 C1009.2315,338.6613 977.18,352.08 934.74,372.97 C916.28,382.05 896.55,393.52 880.2,403.55 " fill="none" id="Resource-backto-Stage" style="stroke:#181818;stroke-width:1;"/><polygon fill="none" points="1066.49,317.03,1047.5311,317.7785,1051.772,329.0041,1066.49,317.03" style="stroke:#181818;stroke-width:1;"/></g><!--reverse link Resource to ComputePool--><g id="link_Resource_ComputePool"><path d="M1169.2443,352.2173 C1196.4843,442.7873 1249.67,619.59 1269.77,686.4 " fill="none" id="Resource-backto-ComputePool" style="stroke:#181818;stroke-width:1;"/><polygon fill="none" points="1164.06,334.98,1163.4986,353.9454,1174.9901,350.4892,1164.06,334.98" style="stroke:#181818;stroke-width:1;"/></g><!--reverse link Resource to Service--><g id="link_Resource_Service"><path d="M1206.9627,348.6077 C1217.2927,360.5377 1216,360.03 1224.74,372.97 C1264.12,431.23 1298.28,507.28 1314.2,544.97 " fill="none" id="Resource-backto-Service" style="stroke:#181818;stroke-width:1;"/><polygon fill="none" points="1195.18,335,1202.4268,352.5352,1211.4986,344.6801,1195.18,335" style="stroke:#181818;stroke-width:1;"/></g><!--reverse link Resource to Function--><g id="link_Resource_Function"><path d="M1248.4246,343.1967 C1269.2146,355.4267 1275.75,359.77 1295.74,372.97 C1310.21,382.52 1325.72,393.83 1338.71,403.63 " fill="none" id="Resource-backto-Function" style="stroke:#181818;stroke-width:1;"/><polygon fill="none" points="1232.91,334.07,1245.3824,348.3682,1251.4669,338.0251,1232.91,334.07" style="stroke:#181818;stroke-width:1;"/></g><!--reverse link Resource to NetworkRule--><g id="link_Resource_NetworkRule"><path d="M1250.6198,301.5632 C1316.1598,314.6832 1386.3,340.17 1432.74,403.97 C1496,490.88 1474.37,630.9 1462.43,686.11 " fill="none" id="Resource-backto-NetworkRule" style="stroke:#181818;stroke-width:1;"/><polygon fill="none" points="1232.97,298.03,1249.4421,307.4465,1251.7976,295.6799,1232.97,298.03" style="stroke:#181818;stroke-width:1;"/></g><!--reverse link Application to Resource--><g id="link_Application_Resource"><path codeLine="62" d="M1149.74,140.83 C1149.74,173.65 1149.74,204.98 1149.74,237.73 " fill="none" id="Application-backto-Resource" style="stroke:#181818;stroke-width:1;"/><polygon fill="#181818" points="1149.74,128.83,1145.74,134.83,1149.74,140.83,1153.74,134.83,1149.74,128.83" style="stroke:#181818;stroke-width:1;"/><text fill="#000000" font-family="sans-serif" font-size="13" lengthAdjust="spacing" textLength="55.0278" x="1150.74" y="195.8469">contains</text><text fill="#000000" font-family="sans-serif" font-size="13" lengthAdjust="spacing" textLength="8.271" x="1141.2204" y="148.4906">1</text><text fill="#000000" font-family="sans-serif" font-size="13" lengthAdjust="spacing" textLength="8.2393" x="1141.1945" y="226.9108">n</text></g><!--link Resource to Role--><g id="link_Resource_Role"><path codeLine="63" d="M1093.25,335.18 C1028.36,389.53 925.23,473.96 881.74,498.97 C862.66,509.93 841.52,519.9 820.69,528.65 " fill="none" id="Resource-Role" style="stroke:#181818;stroke-width:1;"/><text fill="#000000" font-family="sans-serif" font-size="13" lengthAdjust="spacing" textLength="63.1528" x="1010.74" y="432.5369">owned by</text><text fill="#000000" font-family="sans-serif" font-size="13" lengthAdjust="spacing" textLength="8.2393" x="1077.1379" y="354.8218">n</text><text fill="#000000" font-family="sans-serif" font-size="13" lengthAdjust="spacing" textLength="8.271" x="829.7008" y="518.3592">1</text></g><!--link Statement to Role--><g id="link_Statement_Role"><path codeLine="64" d="M597.22,343.41 C620.11,360.35 642.5,380.72 658.74,403.97 C684.9,441.42 696.6,493.27 701.76,528.64 " fill="none" id="Statement-Role" style="stroke:#181818;stroke-width:1;"/><text fill="#000000" font-family="sans-serif" font-size="13" lengthAdjust="spacing" textLength="53.5615" x="683.74" y="432.5369">requires</text><text fill="#000000" font-family="sans-serif" font-size="13" lengthAdjust="spacing" textLength="8.2393" x="600.1586" y="362.9466">n</text><text fill="#000000" font-family="sans-serif" font-size="13" lengthAdjust="spacing" textLength="8.271" x="692.5107" y="518.0473">1</text></g><!--link Step to Statement--><g id="link_Step_Statement"><path codeLine="65" d="M867.35,120.44 C795.74,152.48 694.22,197.9 615.84,232.97 " fill="none" id="Step-Statement" style="stroke:#181818;stroke-width:1;"/><text fill="#000000" font-family="sans-serif" font-size="13" lengthAdjust="spacing" textLength="58.9443" x="728.74" y="195.8469">executes</text><text fill="#000000" font-family="sans-serif" font-size="13" lengthAdjust="spacing" textLength="8.271" x="851.7101" y="120.2499">1</text><text fill="#000000" font-family="sans-serif" font-size="13" lengthAdjust="spacing" textLength="8.2393" x="623.6059" y="226.1395">n</text></g><!--link Step to Resource--><g id="link_Step_Resource"><path codeLine="66" d="M1008.75,136.76 C1038.7,168.34 1075.76,207.39 1104.36,237.54 " fill="none" id="Step-Resource" style="stroke:#181818;stroke-width:1;"/><text fill="#000000" font-family="sans-serif" font-size="13" lengthAdjust="spacing" textLength="59.96" x="1065.74" y="195.8469">produces</text><text fill="#000000" font-family="sans-serif" font-size="13" lengthAdjust="spacing" textLength="8.2393" x="1006.7375" y="156.6808">n</text><text fill="#000000" font-family="sans-serif" font-size="13" lengthAdjust="spacing" textLength="8.2393" x="1089.4329" y="226.6941">n</text></g><!--reverse link Step to CreateImageRepository--><g id="link_Step_CreateImageRepository"><path d="M1787.0724,118.7532 C1816.5024,158.0932 1864.7,222.51 1894.16,261.87 " fill="none" id="Step-backto-CreateImageRepository" style="stroke:#181818;stroke-width:1;"/><polygon fill="none" points="1776.29,104.34,1782.268,122.3473,1791.8768,115.159,1776.29,104.34" style="stroke:#181818;stroke-width:1;"/></g><!--reverse link Step to CreateStages--><g id="link_Step_CreateStages"><path d="M1760.2117,122.2239 C1762.1817,168.7339 1768.75,257.76 1795.74,342.97 C1802.56,364.52 1814.52,387.25 1824.1,403.62 " fill="none" id="Step-backto-CreateStages" style="stroke:#181818;stroke-width:1;"/><polygon fill="none" points="1759.45,104.24,1754.2171,122.4778,1766.2064,121.97,1759.45,104.24" style="stroke:#181818;stroke-width:1;"/></g><!--reverse link Step to CreateComputePool--><g id="link_Step_CreateComputePool"><path d="M1751.5818,121.7753 C1741.7218,180.9553 1723.36,324.45 1757.74,451.97 C1767.2,487.06 1790.01,522.57 1806.39,544.96 " fill="none" id="Step-backto-CreateComputePool" style="stroke:#181818;stroke-width:1;"/><polygon fill="none" points="1754.54,104.02,1745.6634,120.7892,1757.5002,122.7613,1754.54,104.02" style="stroke:#181818;stroke-width:1;"/></g><!--reverse link Step to BuildAndPushContainer--><g id="link_Step_BuildAndPushContainer"><path d="M1740.7595,120.7458 C1724.4895,158.1458 1702.74,217.65 1702.74,285.37 C1702.74,285.37 1702.74,285.37 1702.74,570.26 C1702.74,617.86 1741.34,660.84 1769.84,686.09 " fill="none" id="Step-backto-BuildAndPushContainer" style="stroke:#181818;stroke-width:1;"/><polygon fill="none" points="1747.94,104.24,1735.2576,118.3523,1746.2615,123.1393,1747.94,104.24" style="stroke:#181818;stroke-width:1;"/></g><!--reverse link Step to UploadFiles--><g id="link_Step_UploadFiles"><path d="M1729.3806,118.6104 C1702.2406,155.0104 1665.74,214.2 1665.74,285.37 C1665.74,285.37 1665.74,285.37 1665.74,711.56 C1665.74,745.13 1690.8,775.65 1711.95,795.42 " fill="none" id="Step-backto-UploadFiles" style="stroke:#181818;stroke-width:1;"/><polygon fill="none" points="1740.14,104.18,1724.5705,115.0239,1734.1908,122.1968,1740.14,104.18" style="stroke:#181818;stroke-width:1;"/></g><!--reverse link Step to CreateExternalAccess--><g id="link_Step_CreateExternalAccess"><path d="M1717.9203,116.4138 C1679.7603,151.5038 1628.74,209.65 1628.74,285.37 C1628.74,285.37 1628.74,285.37 1628.74,820.56 C1628.74,857.81 1661.52,886.07 1691.61,904.17 " fill="none" id="Step-backto-CreateExternalAccess" style="stroke:#181818;stroke-width:1;"/><polygon fill="none" points="1731.17,104.23,1713.859,111.9972,1721.9815,120.8304,1731.17,104.23" style="stroke:#181818;stroke-width:1;"/></g><!--reverse link Step to CreateService--><g id="link_Step_CreateService"><path d="M1808.4564,91.7543 C1883.6064,109.5343 2046.74,161.04 2046.74,285.37 C2046.74,285.37 2046.74,285.37 2046.74,929.56 C2046.74,962.03 2024.76,993.18 2006.57,1013.42 " fill="none" id="Step-backto-CreateService" style="stroke:#181818;stroke-width:1;"/><polygon fill="none" points="1790.94,87.61,1807.075,97.5931,1809.8378,85.9155,1790.94,87.61" style="stroke:#181818;stroke-width:1;"/></g><!--reverse link Step to CreateFunctions--><g id="link_Step_CreateFunctions"><path d="M1808.8419,88.5081 C1891.0419,102.2981 2083.74,148.05 2083.74,285.37 C2083.74,285.37 2083.74,285.37 2083.74,1038.56 C2083.74,1073.12 2056.15,1102.86 2032.22,1122.15 " fill="none" id="Step-backto-CreateFunctions" style="stroke:#181818;stroke-width:1;"/><polygon fill="none" points="1791.09,85.53,1807.8492,94.4254,1809.8346,82.5908,1791.09,85.53" style="stroke:#181818;stroke-width:1;"/></g><!--link CreateImageRepository to CreateStages--><g id="link_CreateImageRepository_CreateStages"><path codeLine="80" d="M1899.52,310.74 C1886.04,336.51 1867.2701,372.413 1853.7801,398.213 " fill="none" id="CreateImageRepository-to-CreateStages" style="stroke:#181818;stroke-width:1;"/><polygon fill="#181818" points="1851,403.53,1858.7149,397.4078,1853.3168,399.0991,1851.6255,393.701,1851,403.53" style="stroke:#181818;stroke-width:1;"/></g><!--link CreateStages to CreateComputePool--><g id="link_CreateStages_CreateComputePool"><path codeLine="81" d="M1836.39,452.28 C1833.81,477.99 1830.2807,513.1601 1827.6907,538.9001 " fill="none" id="CreateStages-to-CreateComputePool" style="stroke:#181818;stroke-width:1;"/><polygon fill="#181818" points="1827.09,544.87,1831.9709,536.3157,1827.5906,539.8951,1824.0111,535.5148,1827.09,544.87" style="stroke:#181818;stroke-width:1;"/></g><!--link CreateComputePool to BuildAndPushContainer--><g id="link_CreateComputePool_BuildAndPushContainer"><path codeLine="82" d="M1820.55,593.58 C1815.94,619.29 1809.6196,654.5143 1804.9996,680.2643 " fill="none" id="CreateComputePool-to-BuildAndPushContainer" style="stroke:#181818;stroke-width:1;"/><polygon fill="#181818" points="1803.94,686.17,1809.4665,678.0178,1804.823,681.2486,1801.5922,676.6051,1803.94,686.17" style="stroke:#181818;stroke-width:1;"/></g><!--link BuildAndPushContainer to UploadFiles--><g id="link_BuildAndPushContainer_UploadFiles"><path codeLine="83" d="M1786.79,735.04 C1776.95,752.88 1766.3781,772.0563 1756.5481,789.8763 " fill="none" id="BuildAndPushContainer-to-UploadFiles" style="stroke:#181818;stroke-width:1;"/><polygon fill="#181818" points="1753.65,795.13,1761.4996,789.1815,1756.0651,790.7519,1754.4947,785.3174,1753.65,795.13" style="stroke:#181818;stroke-width:1;"/></g><!--link UploadFiles to CreateExternalAccess--><g id="link_UploadFiles_CreateExternalAccess"><path codeLine="84" d="M1740.74,844.04 C1740.74,861.88 1740.74,880.31 1740.74,898.13 " fill="none" id="UploadFiles-to-CreateExternalAccess" style="stroke:#181818;stroke-width:1;"/><polygon fill="#181818" points="1740.74,904.13,1744.74,895.13,1740.74,899.13,1736.74,895.13,1740.74,904.13" style="stroke:#181818;stroke-width:1;"/></g><!--link CreateExternalAccess to CreateService--><g id="link_CreateExternalAccess_CreateService"><path codeLine="85" d="M1793.85,953.04 C1834.19,970.88 1883.9421,992.8845 1924.2621,1010.7045 " fill="none" id="CreateExternalAccess-to-CreateService" style="stroke:#181818;stroke-width:1;"/><polygon fill="#181818" points="1929.75,1013.13,1923.1351,1005.8332,1925.1767,1011.1088,1919.9012,1013.1504,1929.75,1013.13" style="stroke:#181818;stroke-width:1;"/></g><!--link CreateService to CreateFunctions--><g id="link_CreateService_CreateFunctions"><path codeLine="86" d="M1986.03,1062.04 C1988.53,1079.88 1991.1164,1098.3682 1993.6164,1116.1882 " fill="none" id="CreateService-to-CreateFunctions" style="stroke:#181818;stroke-width:1;"/><polygon fill="#181818" points="1994.45,1122.13,1997.1608,1112.6616,1993.7553,1117.1785,1989.2384,1113.773,1994.45,1122.13" style="stroke:#181818;stroke-width:1;"/></g><!--link Service to ComputePool--><g id="link_Service_ComputePool"><path codeLine="89" d="M1315.87,593.58 C1307.19,619.29 1295.2385,654.735 1286.5485,680.485 " fill="none" id="Service-to-ComputePool" style="stroke:#181818;stroke-width:1;"/><polygon fill="#181818" points="1284.63,686.17,1291.2978,678.9215,1286.2288,681.4325,1283.7178,676.3635,1284.63,686.17" style="stroke:#181818;stroke-width:1;"/><text fill="#000000" font-family="sans-serif" font-size="13" lengthAdjust="spacing" textLength="48.9214" x="1301.74" y="652.6269">runs on</text></g><!--link Service to ImageRepository--><g id="link_Service_ImageRepository"><path codeLine="90" d="M1281.62,586.34 C1251.08,598.85 1209.42,617.72 1175.74,639.56 C1154.84,653.11 1137.9949,667.5332 1122.5149,682.1332 " fill="none" id="Service-to-ImageRepository" style="stroke:#181818;stroke-width:1;"/><polygon fill="#181818" points="1118.15,686.25,1127.4418,682.9848,1121.7874,682.8194,1121.9528,677.1649,1118.15,686.25" style="stroke:#181818;stroke-width:1;"/><text fill="#000000" font-family="sans-serif" font-size="13" lengthAdjust="spacing" textLength="109.0781" x="1176.74" y="652.6269">uses image from</text></g><!--link Service to NetworkRule--><g id="link_Service_NetworkRule"><path codeLine="91" d="M1346,593.58 C1370.55,619.29 1405.6771,656.0799 1430.2571,681.8299 " fill="none" id="Service-to-NetworkRule" style="stroke:#181818;stroke-width:1;"/><polygon fill="#181818" points="1434.4,686.17,1431.0791,676.8979,1430.9476,682.5533,1425.2923,682.4218,1434.4,686.17" style="stroke:#181818;stroke-width:1;"/><text fill="#000000" font-family="sans-serif" font-size="13" lengthAdjust="spacing" textLength="29.7832" x="1407.74" y="652.6269">uses</text></g><!--link Function to Service--><g id="link_Function_Service"><path codeLine="92" d="M1361.21,452.28 C1352.9,477.99 1341.4554,513.4208 1333.1354,539.1608 " fill="none" id="Function-to-Service" style="stroke:#181818;stroke-width:1;"/><polygon fill="#181818" points="1331.29,544.87,1337.8642,537.5365,1332.8278,540.1124,1330.252,535.076,1331.29,544.87" style="stroke:#181818;stroke-width:1;"/><text fill="#000000" font-family="sans-serif" font-size="13" lengthAdjust="spacing" textLength="77.1938" x="1352.74" y="495.0369">deployed to</text></g><!--link Stage to Role--><g id="link_Stage_Role"><path codeLine="93" d="M820.64,452.28 C800.08,473.04 773.7827,499.5775 749.3627,524.2275 " fill="none" id="Stage-to-Role" style="stroke:#181818;stroke-width:1;"/><polygon fill="#181818" points="745.14,528.49,754.3157,524.9114,748.6589,524.9379,748.6324,519.2811,745.14,528.49" style="stroke:#181818;stroke-width:1;"/><text fill="#000000" font-family="sans-serif" font-size="13" lengthAdjust="spacing" textLength="80.1328" x="792.74" y="495.0369">accessed by</text></g><!--SRC=[XLPDRzim3BthLmYv5DYGmtRqOK3gEaEmDiwSPCKm38KgCuaGMV8akLamxB-FybTir-ak-I2VIF7naVODNRkp56fFx56ed1cMKQwpN2jGphk05fdysF7cZ1_P7YgV0UwOsale09uHi3UwK6cefJRqT10E2BcXeMJMqXHsGWadjBA4FLjd67UKbwwrOmuoJ4p_44hV6_XL20CsqH82wZzxLh2wCDnxwby_Vde_Du1HxD2SwLJinC3-bv0wizAddMH7M7-zf_3RWKexrwb1TveVmOGwovXAhw9kcJty3pCN4hQvr6mCKcDylHKFYcLOvTePtoRyB-nIgnddIB6RfPbG0RtLY6RgKb1Jv7W4Tyuxl6tmdxVgam9J4zq6ckMv59pvVet7idZnmdOjBs0imbiJnW9LPBryPQp5m-npz9H4gtYzsCJ9TpIjDsZ2xp1-M6qtqTCgZk-zEKg-BKBlc6-NuMOHB_7dCjeynicNfsHx7_aaDvWGSak5GbQ15-MTTrAVcYQZjwf1czHNkb0Ezc36gcfK5fIdAWdbHgS5VoqXp9i3HtNnrc7hb8iCHoM1N5lXj3cttMvmxSqGTis9OieB1ojiyTNpO5u4lnfXNYXUad75lmHtqkQO578a19Pt1pdQG76S7z8LnEJ3XBwRJkb4JIwA2t21ACS4pdThym2FGtofwu1wiQNq-KmkG_yQr7I1bAtpZZhPvL1Gzxe5gHRKkL7JEaBgzKKdKIkHEKfaKWgZ9hpS8DTQvxCCe6Nxx5k8iHxsOBU5aEbCfQl2Ru-IFZ3Zq6fn-1NoPie8NKOnYOi2x9l8eNf688s21d5AyVU9x8jbdCffYjsVVkgnHtfKzX4TziXhFXliA8LadDZcJ8TBqkMrdxzF9HdbTr1JHIdf4zp7j9nw4bkjzkXh3_f3dP9nCWhiXLOzn93cW1OMQn7UJ7T6PprqT-Wh96dtXFSts02VsCZC6QVLQL9jAk-lHvILvLUZJ9Hs-4uWzWT7zQvvOkF3QZeBmtYxtCpk7XPBQYfxFTmftU5B0fEIwXmCgnX12gWFDWpPMJuOuV4WB9uPM3U6ASkDoCjIcauq4Vy1]--></g></svg>